<svg width="48" height="48" viewBox="0 0 48 48" fill="none" xmlns="http://www.w3.org/2000/svg">
<rect x="22" y="40" width="4" height="4" fill="#FF0000"/>
<rect x="22" y="35" width="4" height="4" fill="#FF0000"/>
<rect x="27" y="37" width="4" height="4" fill="#FF0000"/>
<rect x="32" y="37" width="4" height="4" fill="#FF0000"/>
<rect x="37" y="37" width="4" height="4" fill="#FF0000"/>
<rect x="17" y="37" width="4" height="4" fill="#FF0000"/>
<rect x="12" y="37" width="4" height="4" fill="#FF0000"/>
<rect x="7" y="37" width="4" height="4" fill="#FF0000"/>
<rect x="7" y="32" width="4" height="4" fill="#FF0000"/>
<rect x="37" y="32" width="4" height="4" fill="#FF0000"/>
<rect x="7" y="27" width="4" height="4" fill="#FF0000"/>
<rect x="37" y="27" width="4" height="4" fill="#FF0000"/>
<rect x="7" y="22" width="4" height="4" fill="#FF0000"/>
<rect x="37" y="22" width="4" height="4" fill="#FF0000"/>
<rect x="7" y="17" width="4" height="4" fill="#FF0000"/>
<rect x="37" y="17" width="4" height="4" fill="#FF0000"/>
<rect x="7" y="12" width="4" height="4" fill="#FF0000"/>
<rect x="37" y="12" width="4" height="4" fill="#FF0000"/>
<rect x="7" y="7" width="4" height="4" fill="#FF0000"/>
<rect x="37" y="7" width="4" height="4" fill="#FF0000"/>
<rect x="12" y="9" width="4" height="4" fill="#FF0000"/>
<rect x="32" y="9" width="4" height="4" fill="#FF0000"/>
<rect x="14" y="14" width="4" height="4" fill="#FF0000"/>
<rect x="30" y="14" width="4" height="4" fill="#FF0000"/>
<rect x="14" y="19" width="4" height="4" fill="#FF0000"/>
<rect x="30" y="19" width="4" height="4" fill="#FF0000"/>
<rect x="13" y="24" width="4" height="4" fill="#FF0000"/>
<rect x="31" y="24" width="4" height="4" fill="#FF0000"/>
<rect x="12" y="29" width="4" height="4" fill="#FF0000"/>
<rect x="32" y="29" width="4" height="4" fill="#FF0000"/>
<rect x="17" y="31" width="4" height="4" fill="#FF0000"/>
<rect x="27" y="31" width="4" height="4" fill="#FF0000"/>
<rect x="22" y="29" width="4" height="4" fill="#FF0000"/>
<rect x="22" y="24" width="4" height="4" fill="#FF0000"/>
<rect x="22" y="14" width="4" height="4" fill="#FF0000"/>
<rect x="19" y="9" width="4" height="4" fill="#FF0000"/>
<rect x="25" y="9" width="4" height="4" fill="#FF0000"/>
<rect x="22" y="4" width="4" height="4" fill="#FF0000"/>
<rect x="22" y="19" width="4" height="4" fill="#FF0000"/>
</svg>
