<svg width="48" height="48" viewBox="0 0 48 48" fill="none" xmlns="http://www.w3.org/2000/svg">
<rect width="48" height="48" fill="#101010"/>
<rect x="23" y="43" width="2" height="2" fill="#610000"/>
<rect x="20" y="40" width="2" height="2" fill="#610000"/>
<rect x="23" y="38" width="2" height="2" fill="#610000"/>
<rect x="29" y="38" width="2" height="2" fill="#610000"/>
<rect x="32" y="38" width="2" height="2" fill="#610000"/>
<rect x="14" y="38" width="2" height="2" fill="#610000"/>
<rect x="35" y="38" width="2" height="2" fill="#610000"/>
<rect x="11" y="38" width="2" height="2" fill="#610000"/>
<rect x="35" y="35" width="2" height="2" fill="#610000"/>
<rect x="11" y="35" width="2" height="2" fill="#610000"/>
<rect x="35" y="32" width="2" height="2" fill="#610000"/>
<rect x="11" y="32" width="2" height="2" fill="#610000"/>
<rect x="35" y="29" width="2" height="2" fill="#610000"/>
<rect x="11" y="29" width="2" height="2" fill="#610000"/>
<rect x="35" y="26" width="2" height="2" fill="#610000"/>
<rect x="11" y="26" width="2" height="2" fill="#610000"/>
<rect x="35" y="23" width="2" height="2" fill="#610000"/>
<rect x="11" y="23" width="2" height="2" fill="#610000"/>
<rect x="35" y="20" width="2" height="2" fill="#610000"/>
<rect x="11" y="20" width="2" height="2" fill="#610000"/>
<rect x="35" y="17" width="2" height="2" fill="#610000"/>
<rect x="11" y="17" width="2" height="2" fill="#610000"/>
<rect x="35" y="14" width="2" height="2" fill="#610000"/>
<rect x="11" y="14" width="2" height="2" fill="#610000"/>
<rect x="35" y="11" width="2" height="2" fill="#610000"/>
<rect x="11" y="11" width="2" height="2" fill="#610000"/>
<rect x="35" y="8" width="2" height="2" fill="#610000"/>
<rect x="11" y="8" width="2" height="2" fill="#610000"/>
<rect x="32" y="10" width="2" height="2" fill="#610000"/>
<rect x="14" y="10" width="2" height="2" fill="#610000"/>
<rect x="30" y="13" width="2" height="2" fill="#610000"/>
<rect x="16" y="13" width="2" height="2" fill="#610000"/>
<rect x="29" y="16" width="2" height="2" fill="#610000"/>
<rect x="17" y="16" width="2" height="2" fill="#610000"/>
<rect x="29" y="19" width="2" height="2" fill="#610000"/>
<rect x="17" y="19" width="2" height="2" fill="#610000"/>
<rect x="29" y="23" width="2" height="2" fill="#610000"/>
<rect x="17" y="23" width="2" height="2" fill="#610000"/>
<rect x="30" y="26" width="2" height="2" fill="#610000"/>
<rect x="16" y="26" width="2" height="2" fill="#610000"/>
<rect x="32" y="29" width="2" height="2" fill="#610000"/>
<rect x="14" y="29" width="2" height="2" fill="#610000"/>
<rect x="29" y="32" width="2" height="2" fill="#610000"/>
<rect x="17" y="32" width="2" height="2" fill="#610000"/>
<rect x="23" y="30" width="2" height="2" fill="#610000"/>
<rect x="23" y="27" width="2" height="2" fill="#610000"/>
<rect x="23" y="24" width="2" height="2" fill="#610000"/>
<rect x="23" y="21" width="2" height="2" fill="#610000"/>
<rect x="23" y="18" width="2" height="2" fill="#610000"/>
<rect x="25" y="15" width="2" height="2" fill="#610000"/>
<rect x="21" y="15" width="2" height="2" fill="#610000"/>
<rect x="25" y="12" width="2" height="2" fill="#610000"/>
<rect x="21" y="12" width="2" height="2" fill="#610000"/>
<rect x="26" y="9" width="2" height="2" fill="#610000"/>
<rect x="20" y="9" width="2" height="2" fill="#610000"/>
<rect x="25" y="6" width="2" height="2" fill="#610000"/>
<rect x="21" y="6" width="2" height="2" fill="#610000"/>
<rect x="23" y="3" width="2" height="2" fill="#610000"/>
<rect x="17" y="38" width="2" height="2" fill="#610000"/>
<rect x="20" y="35" width="2" height="2" fill="#610000"/>
<rect x="23" y="33" width="2" height="2" fill="#610000"/>
<rect x="26" y="35" width="2" height="2" fill="#610000"/>
<rect x="26" y="40" width="2" height="2" fill="#610000"/>
</svg>
