<svg width="48" height="48" viewBox="0 0 48 48" fill="none" xmlns="http://www.w3.org/2000/svg">
<rect width="48" height="48" fill="#101010"/>
<rect x="23" y="39" width="2" height="2" fill="#FF0000"/>
<rect x="23" y="42" width="2" height="2" fill="#FF0000"/>
<rect x="20" y="38" width="2" height="2" fill="#FF0000"/>
<rect x="29" y="37" width="2" height="2" fill="#FF0000"/>
<rect x="32" y="37" width="2" height="2" fill="#FF0000"/>
<rect x="14" y="37" width="2" height="2" fill="#FF0000"/>
<rect x="35" y="37" width="2" height="2" fill="#FF0000"/>
<rect x="11" y="37" width="2" height="2" fill="#FF0000"/>
<rect x="35" y="34" width="2" height="2" fill="#FF0000"/>
<rect x="11" y="34" width="2" height="2" fill="#FF0000"/>
<rect x="35" y="31" width="2" height="2" fill="#FF0000"/>
<rect x="11" y="31" width="2" height="2" fill="#FF0000"/>
<rect x="35" y="28" width="2" height="2" fill="#FF0000"/>
<rect x="11" y="28" width="2" height="2" fill="#FF0000"/>
<rect x="35" y="25" width="2" height="2" fill="#FF0000"/>
<rect x="11" y="25" width="2" height="2" fill="#FF0000"/>
<rect x="35" y="22" width="2" height="2" fill="#FF0000"/>
<rect x="11" y="22" width="2" height="2" fill="#FF0000"/>
<rect x="35" y="19" width="2" height="2" fill="#FF0000"/>
<rect x="11" y="19" width="2" height="2" fill="#FF0000"/>
<rect x="35" y="16" width="2" height="2" fill="#FF0000"/>
<rect x="11" y="16" width="2" height="2" fill="#FF0000"/>
<rect x="35" y="13" width="2" height="2" fill="#FF0000"/>
<rect x="11" y="13" width="2" height="2" fill="#FF0000"/>
<rect x="35" y="10" width="2" height="2" fill="#FF0000"/>
<rect x="11" y="10" width="2" height="2" fill="#FF0000"/>
<rect x="32" y="13" width="2" height="2" fill="#FF0000"/>
<rect x="14" y="13" width="2" height="2" fill="#FF0000"/>
<rect x="30" y="16" width="2" height="2" fill="#FF0000"/>
<rect x="16" y="16" width="2" height="2" fill="#FF0000"/>
<rect x="29" y="19" width="2" height="2" fill="#FF0000"/>
<rect x="17" y="19" width="2" height="2" fill="#FF0000"/>
<rect x="29" y="22" width="2" height="2" fill="#FF0000"/>
<rect x="17" y="22" width="2" height="2" fill="#FF0000"/>
<rect x="29" y="25" width="2" height="2" fill="#FF0000"/>
<rect x="17" y="25" width="2" height="2" fill="#FF0000"/>
<rect x="30" y="28" width="2" height="2" fill="#FF0000"/>
<rect x="16" y="28" width="2" height="2" fill="#FF0000"/>
<rect x="32" y="31" width="2" height="2" fill="#FF0000"/>
<rect x="14" y="31" width="2" height="2" fill="#FF0000"/>
<rect x="29" y="33" width="2" height="2" fill="#FF0000"/>
<rect x="17" y="33" width="2" height="2" fill="#FF0000"/>
<rect x="23" y="29" width="2" height="2" fill="#FF0000"/>
<rect x="23" y="26" width="2" height="2" fill="#FF0000"/>
<rect x="23" y="23" width="2" height="2" fill="#FF0000"/>
<rect x="23" y="20" width="2" height="2" fill="#FF0000"/>
<rect x="23" y="17" width="2" height="2" fill="#FF0000"/>
<rect x="25" y="14" width="2" height="2" fill="#FF0000"/>
<rect x="21" y="14" width="2" height="2" fill="#FF0000"/>
<rect x="26" y="11" width="2" height="2" fill="#FF0000"/>
<rect x="20" y="11" width="2" height="2" fill="#FF0000"/>
<rect x="25" y="8" width="2" height="2" fill="#FF0000"/>
<rect x="21" y="8" width="2" height="2" fill="#FF0000"/>
<rect x="23" y="5" width="2" height="2" fill="#FF0000"/>
<rect x="17" y="37" width="2" height="2" fill="#FF0000"/>
<rect x="23" y="33" width="2" height="2" fill="#FF0000"/>
<rect x="26" y="35" width="2" height="2" fill="#FF0000"/>
<rect x="20" y="35" width="2" height="2" fill="#FF0000"/>
<rect x="26" y="38" width="2" height="2" fill="#FF0000"/>
</svg>
